<svg width="18" height="16" viewBox="0 0 18 16" fill="none" xmlns="http://www.w3.org/2000/svg">
<path d="M1.38461 1.6H16.6154V12.7692H1.38461V1.6Z" stroke="white" stroke-width="1.5" stroke-linecap="round" stroke-linejoin="round"/>
<path d="M11.5385 1.6V12.7692" stroke="white" stroke-width="1.5" stroke-linecap="round" stroke-linejoin="round"/>
<path d="M13.5692 7.69231H14.5846" stroke="white" stroke-width="1.5" stroke-linecap="round" stroke-linejoin="round"/>
<path d="M13.5692 9.72307H14.5846" stroke="white" stroke-width="1.5" stroke-linecap="round" stroke-linejoin="round"/>
<path d="M14.0769 4.9C14.1271 4.9 14.1762 4.91489 14.2179 4.94278C14.2597 4.97068 14.2922 5.01032 14.3114 5.05671C14.3307 5.10309 14.3357 5.15413 14.3259 5.20337C14.3161 5.25261 14.2919 5.29784 14.2564 5.33335C14.2209 5.36885 14.1757 5.39302 14.1264 5.40282C14.0772 5.41261 14.0262 5.40758 13.9798 5.38837C13.9334 5.36916 13.8937 5.33662 13.8659 5.29488C13.838 5.25313 13.8231 5.20405 13.8231 5.15385C13.8231 5.08652 13.8498 5.02196 13.8974 4.97435C13.945 4.92675 14.0096 4.9 14.0769 4.9" stroke="white" stroke-width="1.5" stroke-linecap="round" stroke-linejoin="round"/>
<path d="M2.39999 14.8L4.43076 12.7692" stroke="white" stroke-width="1.5" stroke-linecap="round" stroke-linejoin="round"/>
<path d="M15.6 14.8L13.5692 12.7692" stroke="white" stroke-width="1.5" stroke-linecap="round" stroke-linejoin="round"/>
</svg>
